<?xml version="1.0" encoding="UTF-8" standalone="no"?>
<svg
   xmlns:dc="http://purl.org/dc/elements/1.1/"
   xmlns:cc="http://creativecommons.org/ns#"
   xmlns:rdf="http://www.w3.org/1999/02/22-rdf-syntax-ns#"
   xmlns:svg="http://www.w3.org/2000/svg"
   xmlns="http://www.w3.org/2000/svg"
   xmlns:sodipodi="http://sodipodi.sourceforge.net/DTD/sodipodi-0.dtd"
   xmlns:inkscape="http://www.inkscape.org/namespaces/inkscape"
   width="11.210545mm"
   height="10.70023mm"
   viewBox="0 0 11.210545 10.70023"
   version="1.1"
   id="svg8"
   inkscape:version="1.0.2 (e86c870879, 2021-01-15, custom)"
   sodipodi:docname="label.svg">
  <defs
     id="defs2" />
  <sodipodi:namedview
     id="base"
     pagecolor="#ffffff"
     bordercolor="#666666"
     borderopacity="1.0"
     inkscape:pageopacity="0.0"
     inkscape:pageshadow="2"
     inkscape:zoom="2.8"
     inkscape:cx="-33.468943"
     inkscape:cy="-11.380963"
     inkscape:document-units="mm"
     inkscape:current-layer="layer1"
     inkscape:document-rotation="0"
     showgrid="true"
     inkscape:snap-grids="true"
     inkscape:snap-to-guides="true"
     inkscape:window-width="1920"
     inkscape:window-height="1001"
     inkscape:window-x="-9"
     inkscape:window-y="-9"
     inkscape:window-maximized="1">
    <inkscape:grid
       type="xygrid"
       id="grid845"
       originx="-51.030403"
       originy="-33.014817" />
  </sodipodi:namedview>
  <metadata
     id="metadata5">
    <rdf:RDF>
      <cc:Work
         rdf:about="">
        <dc:format>image/svg+xml</dc:format>
        <dc:type
           rdf:resource="http://purl.org/dc/dcmitype/StillImage" />
        <dc:title />
      </cc:Work>
    </rdf:RDF>
  </metadata>
  <g
     inkscape:label="Слой 1"
     inkscape:groupmode="layer"
     id="layer1"
     transform="translate(-51.030404,-33.014816)">
    <g
       id="g875"
       transform="matrix(0.48275868,0,0,0.44444449,26.412712,24.25347)">
      <path
         style="fill:none;stroke:#000000;stroke-width:0.254958px;stroke-linecap:butt;stroke-linejoin:miter;stroke-opacity:1"
         d="M 62.618055,19.84375 H 74.083333"
         id="path847" />
      <path
         style="fill:none;stroke:#000000;stroke-width:0.224854px;stroke-linecap:butt;stroke-linejoin:miter;stroke-opacity:1"
         d="m 62.618057,19.843751 -7.643519,7.9375"
         id="path847-9" />
      <path
         style="fill:none;stroke:#000000;stroke-width:0.317988px;stroke-linecap:butt;stroke-linejoin:miter;stroke-opacity:1"
         d="m 62.618055,19.84375 v 7.937499 h -7.643519"
         id="path891" />
      <path
         style="fill:none;stroke:#000000;stroke-width:0.224854px;stroke-linecap:butt;stroke-linejoin:miter;stroke-opacity:1"
         d="M 51.152776,43.656249 58.796297,35.71875"
         id="path847-9-10" />
      <path
         style="fill:none;stroke:#000000;stroke-width:0.317988px;stroke-linecap:butt;stroke-linejoin:miter;stroke-opacity:1"
         d="M 51.152778,43.65625 V 35.718751 H 58.7963"
         id="path891-5" />
      <path
         style="fill:none;stroke:#000000;stroke-width:0.317988px;stroke-linecap:butt;stroke-linejoin:miter;stroke-opacity:1"
         d="M 62.618055,27.781249 74.083333,19.84375"
         id="path933" />
      <path
         style="fill:none;stroke:#000000;stroke-width:0.317988px;stroke-linecap:butt;stroke-linejoin:miter;stroke-opacity:1"
         d="m 51.152776,35.71875 3.82176,-7.937501"
         id="path977" />
      <path
         style="fill:none;stroke:#000000;stroke-width:0.317988px;stroke-linecap:butt;stroke-linejoin:miter;stroke-opacity:1"
         d="m 58.796295,35.71875 3.82176,-7.937501"
         id="path979" />
      <path
         style="fill:none;stroke:#000000;stroke-width:0.264583px;stroke-linecap:butt;stroke-linejoin:miter;stroke-opacity:1"
         d="m 62.706249,27.78125 7.408333,2.645833 3.96875,-10.583333"
         id="path999" />
      <path
         style="fill:none;stroke:#000000;stroke-width:0.264583px;stroke-linecap:butt;stroke-linejoin:miter;stroke-opacity:1"
         d="m 58.737499,35.71875 7.408333,2.645833 3.96875,-7.9375"
         id="path1001" />
      <path
         style="fill:none;stroke:#000000;stroke-width:0.264583px;stroke-linecap:butt;stroke-linejoin:miter;stroke-opacity:1"
         d="M 51.064583,43.656249 66.145832,38.364583"
         id="path1011" />
      <path
         style="fill:#00ff00;stroke-width:0.357143"
         d="m 194.70952,134.22171 c 0,-0.0872 3.03599,-6.47563 6.74664,-14.19643 l 6.74663,-14.0378 13.59505,-0.0935 13.59505,-0.0935 -3.66726,7.59352 c -2.01699,4.17643 -5.10378,10.60404 -6.85954,14.28357 l -3.19228,6.69007 -13.48214,0.006 c -7.41518,0.003 -13.48215,-0.065 -13.48215,-0.15226 z"
         id="path1023"
         transform="scale(0.26458333)" />
      <path
         style="fill:#00ff00;stroke-width:0.357143"
         d="m 193.99524,149.63828 v -13.82937 h 13.29568 13.29569 l -2.87993,2.94643 c -2.48296,2.54029 -21.18149,22.01532 -23.0507,24.00794 -0.64365,0.68614 -0.66074,0.34654 -0.66074,-13.125 z"
         id="path1025"
         transform="scale(0.26458333)" />
      <path
         style="fill:#00ff00;stroke-width:0.357143"
         d="m 197.54444,161.68065 c 0.67528,-0.7741 6.52281,-6.9012 12.9945,-13.61578 l 11.76673,-12.20833 3.2555,1.17307 c 1.79052,0.64519 7.47327,2.67652 12.62832,4.51407 5.15506,1.83755 9.25328,3.44278 9.10715,3.56717 -0.14613,0.12439 -11.43533,4.13324 -25.08712,8.90855 -13.65178,4.7753 -25.0625,8.7693 -25.35714,8.87554 -0.29464,0.10624 0.0168,-0.44019 0.69206,-1.21429 z"
         id="path1027"
         transform="scale(0.26458333)" />
      <path
         style="fill:#00ff00;stroke-width:0.357143"
         d="m 236.39363,139.4113 c -7.02909,-2.51867 -12.83915,-4.64082 -12.91123,-4.7159 -0.0721,-0.0751 2.96798,-6.56506 6.7557,-14.4222 4.57469,-9.48962 7.05085,-14.25206 7.37552,-14.18546 0.41073,0.0843 23.12146,8.11308 25.58249,9.04406 0.78405,0.2966 0.59595,0.72971 -6.34015,14.59853 -3.9315,7.86108 -7.26832,14.28555 -7.41517,14.27662 -0.14684,-0.009 -6.01806,-2.07698 -13.04716,-4.59565 z"
         id="path1029"
         transform="scale(0.26458333)" />
      <path
         style="fill:#00ff00;stroke-width:0.357143"
         d="m 251.67381,109.51796 c -6.875,-2.45881 -12.60521,-4.58047 -12.7338,-4.71481 -0.21728,-0.22698 39.03599,-27.612317 39.26717,-27.395038 0.17959,0.168784 -13.57345,36.616078 -13.8098,36.597748 -0.12297,-0.01 -5.84857,-2.02909 -12.72357,-4.4879 z"
         id="path1031"
         transform="scale(0.26458333)" />
      <path
         style="fill:#00ff00;stroke-width:0.357143"
         d="M 237.56667,89.576069 V 75.808911 h 19.88095 c 10.93452,0 19.81399,0.0595 19.73214,0.132213 -0.14289,0.126955 -34.43014,23.856755 -37.91667,26.241676 l -1.69642,1.16043 z"
         id="path1033"
         transform="scale(0.26458333)" />
      <path
         style="fill:#00ff00;stroke-width:0.357143"
         d="m 212.95303,100.54105 c 2.07187,-2.111603 8.05573,-8.285843 13.29748,-13.720528 l 9.53044,-9.881247 v 13.720532 13.720533 h -13.29748 -13.29748 z"
         id="path1035"
         transform="scale(0.26458333)" />
      <path
         style="fill:#4d4d4d;stroke:#9a9a9d;stroke-width:0.264583px;stroke-linecap:butt;stroke-linejoin:miter;stroke-opacity:0.541796"
         d="m 66.145832,38.364583 7.9375,5.291666"
         id="path1112" />
      <path
         style="fill:none;stroke:#949493;stroke-width:0.264583px;stroke-linecap:butt;stroke-linejoin:miter;stroke-opacity:0.582043"
         d="m 70.114582,30.427083 3.96875,13.229166"
         id="path1114" />
      <path
         style="fill:none;stroke:#909897;stroke-width:0.264583px;stroke-linecap:butt;stroke-linejoin:miter;stroke-opacity:0.600619"
         d="M 74.083332,43.656249 H 51.329166"
         id="path1147" />
      <path
         style="fill:none;stroke:#898b8b;stroke-width:0.264583px;stroke-linecap:butt;stroke-linejoin:miter;stroke-opacity:0.547988"
         d="M 74.083332,19.84375 V 43.656249"
         id="path1149" />
    </g>
  </g>
</svg>
